<svg width="24" height="19" viewBox="0 0 24 19" fill="none" xmlns="http://www.w3.org/2000/svg">
<g filter="url(#filter0_d_1514_4299)">
<path d="M1 13C1.15 11.2167 1.696 9.57501 2.638 8.07501C3.58 6.57501 4.834 5.38335 6.4 4.50001L4.55 1.30001C4.45 1.15001 4.425 0.991679 4.475 0.825012C4.525 0.658345 4.63333 0.533345 4.8 0.450012C4.93333 0.366679 5.08333 0.350012 5.25 0.400012C5.41667 0.450012 5.55 0.550012 5.65 0.700012L7.5 3.90001C8.93333 3.30001 10.4333 3.00001 12 3.00001C13.5667 3.00001 15.0667 3.30001 16.5 3.90001L18.35 0.700012C18.45 0.550012 18.5833 0.450012 18.75 0.400012C18.9167 0.350012 19.0667 0.366679 19.2 0.450012C19.3667 0.533345 19.475 0.658345 19.525 0.825012C19.575 0.991679 19.55 1.15001 19.45 1.30001L17.6 4.50001C19.1667 5.38335 20.4207 6.57501 21.362 8.07501C22.3033 9.57501 22.8493 11.2167 23 13H1ZM7 10.25C7.35 10.25 7.646 10.129 7.888 9.88701C8.13 9.64501 8.25067 9.34935 8.25 9.00001C8.24933 8.65068 8.12833 8.35468 7.887 8.11201C7.64567 7.86935 7.35 7.74868 7 7.75001C6.65 7.75135 6.354 7.87235 6.112 8.11301C5.87 8.35368 5.74933 8.64935 5.75 9.00001C5.75067 9.35068 5.87167 9.64668 6.113 9.88801C6.35433 10.1293 6.65 10.25 7 10.25ZM17 10.25C17.35 10.25 17.646 10.129 17.888 9.88701C18.13 9.64501 18.2507 9.34935 18.25 9.00001C18.2493 8.65068 18.1283 8.35468 17.887 8.11201C17.6457 7.86935 17.35 7.74868 17 7.75001C16.65 7.75135 16.354 7.87235 16.112 8.11301C15.87 8.35368 15.7493 8.64935 15.75 9.00001C15.7507 9.35068 15.8717 9.64668 16.113 9.88801C16.3543 10.1293 16.65 10.25 17 10.25Z" fill="#1C39BB"/>
</g>
<defs>
<filter id="filter0_d_1514_4299" x="-3" y="0.371887" width="30" height="20.6281" filterUnits="userSpaceOnUse" color-interpolation-filters="sRGB">
<feFlood flood-opacity="0" result="BackgroundImageFix"/>
<feColorMatrix in="SourceAlpha" type="matrix" values="0 0 0 0 0 0 0 0 0 0 0 0 0 0 0 0 0 0 127 0" result="hardAlpha"/>
<feOffset dy="4"/>
<feGaussianBlur stdDeviation="2"/>
<feComposite in2="hardAlpha" operator="out"/>
<feColorMatrix type="matrix" values="0 0 0 0 0 0 0 0 0 0 0 0 0 0 0 0 0 0 0.25 0"/>
<feBlend mode="normal" in2="BackgroundImageFix" result="effect1_dropShadow_1514_4299"/>
<feBlend mode="normal" in="SourceGraphic" in2="effect1_dropShadow_1514_4299" result="shape"/>
</filter>
</defs>
</svg>
