<svg width="24" height="24" viewBox="0 0 24 24" fill="none" xmlns="http://www.w3.org/2000/svg">
<path d="M1 18C1.15 16.2166 1.696 14.575 2.638 13.075C3.58 11.575 4.834 10.3833 6.4 9.49995L4.55 6.29995C4.45 6.14995 4.425 5.99162 4.475 5.82495C4.525 5.65828 4.63333 5.53328 4.8 5.44995C4.93333 5.36662 5.08333 5.34995 5.25 5.39995C5.41667 5.44995 5.55 5.54995 5.65 5.69995L7.5 8.89995C8.93333 8.29995 10.4333 7.99995 12 7.99995C13.5667 7.99995 15.0667 8.29995 16.5 8.89995L18.35 5.69995C18.45 5.54995 18.5833 5.44995 18.75 5.39995C18.9167 5.34995 19.0667 5.36662 19.2 5.44995C19.3667 5.53328 19.475 5.65828 19.525 5.82495C19.575 5.99162 19.55 6.14995 19.45 6.29995L17.6 9.49995C19.1667 10.3833 20.4207 11.575 21.362 13.075C22.3033 14.575 22.8493 16.2166 23 18H1ZM7 15.25C7.35 15.25 7.646 15.129 7.888 14.887C8.13 14.645 8.25067 14.3493 8.25 14C8.24933 13.6506 8.12833 13.3546 7.887 13.112C7.64567 12.8693 7.35 12.7486 7 12.75C6.65 12.7513 6.354 12.8723 6.112 13.113C5.87 13.3536 5.74933 13.6493 5.75 14C5.75067 14.3506 5.87167 14.6466 6.113 14.888C6.35433 15.1293 6.65 15.25 7 15.25ZM17 15.25C17.35 15.25 17.646 15.129 17.888 14.887C18.13 14.645 18.2507 14.3493 18.25 14C18.2493 13.6506 18.1283 13.3546 17.887 13.112C17.6457 12.8693 17.35 12.7486 17 12.75C16.65 12.7513 16.354 12.8723 16.112 13.113C15.87 13.3536 15.7493 13.6493 15.75 14C15.7507 14.3506 15.8717 14.6466 16.113 14.888C16.3543 15.1293 16.65 15.25 17 15.25Z" fill="white"/>
</svg>
