<svg width="22" height="13" viewBox="0 0 22 13" fill="none" xmlns="http://www.w3.org/2000/svg">
<path d="M0 13C0.15 11.2167 0.696 9.57501 1.638 8.07501C2.58 6.57501 3.834 5.38335 5.4 4.50001L3.55 1.30001C3.45 1.15001 3.425 0.991679 3.475 0.825012C3.525 0.658345 3.63333 0.533345 3.8 0.450012C3.93333 0.366679 4.08333 0.350012 4.25 0.400012C4.41667 0.450012 4.55 0.550012 4.65 0.700012L6.5 3.90001C7.93333 3.30001 9.43333 3.00001 11 3.00001C12.5667 3.00001 14.0667 3.30001 15.5 3.90001L17.35 0.700012C17.45 0.550012 17.5833 0.450012 17.75 0.400012C17.9167 0.350012 18.0667 0.366679 18.2 0.450012C18.3667 0.533345 18.475 0.658345 18.525 0.825012C18.575 0.991679 18.55 1.15001 18.45 1.30001L16.6 4.50001C18.1667 5.38335 19.4207 6.57501 20.362 8.07501C21.3033 9.57501 21.8493 11.2167 22 13H0ZM6 10.25C6.35 10.25 6.646 10.129 6.888 9.88701C7.13 9.64501 7.25067 9.34935 7.25 9.00001C7.24933 8.65068 7.12833 8.35468 6.887 8.11201C6.64567 7.86935 6.35 7.74868 6 7.75001C5.65 7.75135 5.354 7.87235 5.112 8.11301C4.87 8.35368 4.74933 8.64935 4.75 9.00001C4.75067 9.35068 4.87167 9.64668 5.113 9.88801C5.35433 10.1293 5.65 10.25 6 10.25ZM16 10.25C16.35 10.25 16.646 10.129 16.888 9.88701C17.13 9.64501 17.2507 9.34935 17.25 9.00001C17.2493 8.65068 17.1283 8.35468 16.887 8.11201C16.6457 7.86935 16.35 7.74868 16 7.75001C15.65 7.75135 15.354 7.87235 15.112 8.11301C14.87 8.35368 14.7493 8.64935 14.75 9.00001C14.7507 9.35068 14.8717 9.64668 15.113 9.88801C15.3543 10.1293 15.65 10.25 16 10.25Z" fill="#1C39BB"/>
</svg>
