<svg width="24" height="24" viewBox="0 0 24 24" fill="none" xmlns="http://www.w3.org/2000/svg">
<path fill-rule="evenodd" clip-rule="evenodd" d="M20.16 12.1932C20.16 11.5905 20.1059 11.011 20.0055 10.4546H12V13.7425H16.5746C16.3775 14.8051 15.7786 15.7053 14.8784 16.308V18.4407H17.6255C19.2327 16.961 20.16 14.7819 20.16 12.1932Z" fill="#4285F4"/>
<path fill-rule="evenodd" clip-rule="evenodd" d="M12.0002 20.5002C14.2952 20.5002 16.2193 19.7391 17.6257 18.4409L14.8786 16.3082C14.1175 16.8182 13.1439 17.1196 12.0002 17.1196C9.78635 17.1196 7.91248 15.6243 7.24407 13.6152H4.4043V15.8175C5.80294 18.5955 8.67749 20.5002 12.0002 20.5002Z" fill="#34A853"/>
<path fill-rule="evenodd" clip-rule="evenodd" d="M7.24387 13.6149C7.07387 13.1049 6.97728 12.5601 6.97728 11.9999C6.97728 11.4397 7.07387 10.8949 7.24387 10.3849V8.18262H4.40409C3.82841 9.33012 3.5 10.6283 3.5 11.9999C3.5 13.3715 3.82841 14.6697 4.40409 15.8172L7.24387 13.6149Z" fill="#FBBC05"/>
<path fill-rule="evenodd" clip-rule="evenodd" d="M12.0002 6.88069C13.2482 6.88069 14.3686 7.30955 15.2495 8.15183L17.6875 5.71387C16.2155 4.34227 14.2914 3.5 12.0002 3.5C8.67748 3.5 5.80294 5.40478 4.4043 8.18273L7.24407 10.385C7.91248 8.37592 9.78635 6.88069 12.0002 6.88069Z" fill="#EA4335"/>
</svg>
