<svg width="20" height="20" viewBox="0 0 20 20" fill="none" xmlns="http://www.w3.org/2000/svg">
<path d="M10 0C15.523 0 20 4.477 20 10C20 15.523 15.523 20 10 20C4.477 20 0 15.523 0 10C0 4.477 4.477 0 10 0ZM10 2C7.87827 2 5.84344 2.84285 4.34315 4.34315C2.84285 5.84344 2 7.87827 2 10C2 12.1217 2.84285 14.1566 4.34315 15.6569C5.84344 17.1571 7.87827 18 10 18C12.1217 18 14.1566 17.1571 15.6569 15.6569C17.1571 14.1566 18 12.1217 18 10C18 7.87827 17.1571 5.84344 15.6569 4.34315C14.1566 2.84285 12.1217 2 10 2ZM10.5 11C10.7549 11.0003 11 11.0979 11.1854 11.2728C11.3707 11.4478 11.4822 11.687 11.4972 11.9414C11.5121 12.1958 11.4293 12.4464 11.2657 12.6418C11.1021 12.8373 10.8701 12.9629 10.617 12.993L10.5 13H7.106L6.273 14.489C6.14945 14.7137 5.94433 14.8823 5.70002 14.96C5.45571 15.0378 5.19086 15.0187 4.9602 14.9068C4.72954 14.7949 4.55068 14.5986 4.46057 14.3586C4.37046 14.1185 4.37598 13.8531 4.476 13.617L4.528 13.511L4.814 13.001H4.3C4.04357 13.003 3.79615 12.9065 3.60889 12.7313C3.42163 12.5561 3.30883 12.3156 3.29381 12.0596C3.27879 11.8036 3.36269 11.5516 3.52818 11.3557C3.69367 11.1598 3.92809 11.035 4.183 11.007L4.3 11H10.5ZM12.393 8.012L14.066 11H15.7C15.9652 11 16.2196 11.1054 16.4071 11.2929C16.5946 11.4804 16.7 11.7348 16.7 12C16.7 12.2652 16.5946 12.5196 16.4071 12.7071C16.2196 12.8946 15.9652 13 15.7 13H15.186L15.473 13.512C15.5992 13.7432 15.6292 14.0148 15.5563 14.2679C15.4835 14.521 15.3137 14.7352 15.0839 14.8638C14.854 14.9925 14.5827 15.0253 14.3289 14.9551C14.075 14.885 13.8591 14.7174 13.728 14.489L10.648 8.989C10.5218 8.75784 10.4918 8.4862 10.5647 8.23309C10.6375 7.97998 10.8073 7.76584 11.0371 7.63717C11.2669 7.50849 11.5383 7.47569 11.7921 7.54587C12.046 7.61605 12.2619 7.78355 12.393 8.012ZM9.873 3.512L10 3.739L10.127 3.512C10.2566 3.28047 10.4728 3.10988 10.7281 3.03777C10.9834 2.96567 11.257 2.99794 11.4885 3.1275C11.72 3.25706 11.8906 3.47329 11.9627 3.72862C12.0348 3.98395 12.0026 4.25747 11.873 4.489L8.793 9.989C8.66191 10.2174 8.44598 10.385 8.19212 10.4551C7.93825 10.5253 7.66695 10.4925 7.43713 10.3638C7.20731 10.2352 7.03754 10.021 6.96468 9.76791C6.89182 9.5148 6.92176 9.24316 7.048 9.012L8.854 5.786L8.128 4.489C8.0622 4.37433 8.01979 4.24775 8.00322 4.11658C7.98666 3.98541 7.99627 3.85226 8.0315 3.72483C8.06672 3.5974 8.12687 3.47822 8.20846 3.37418C8.29005 3.27015 8.39145 3.18333 8.50681 3.11874C8.62217 3.05415 8.7492 3.01308 8.88053 2.9979C9.01187 2.98272 9.14491 2.99374 9.27196 3.03031C9.39901 3.06688 9.51755 3.12828 9.62072 3.21096C9.72389 3.29365 9.80963 3.39596 9.873 3.512Z" fill="white"/>
</svg>
